<?xml version="1.0" encoding="UTF-8" standalone="no"?>
<svg
   version="1.2"
   width="1.5in"
   height="0.60000002in"
   viewBox="0 0 34.29 13.716001"
   id="svg16"
   sodipodi:docname="ethanol.svg"
   inkscape:version="1.1.2 (b8e25be833, 2022-02-05)"
   xmlns:inkscape="http://www.inkscape.org/namespaces/inkscape"
   xmlns:sodipodi="http://sodipodi.sourceforge.net/DTD/sodipodi-0.dtd"
   xmlns="http://www.w3.org/2000/svg"
   xmlns:svg="http://www.w3.org/2000/svg">
  <defs
     id="defs20" />
  <sodipodi:namedview
     id="namedview18"
     pagecolor="#ffffff"
     bordercolor="#666666"
     borderopacity="1.0"
     inkscape:pageshadow="2"
     inkscape:pageopacity="0.0"
     inkscape:pagecheckerboard="true"
     inkscape:document-units="mm"
     showgrid="false"
     scale-x="0.9"
     units="in"
     inkscape:zoom="6.2050099"
     inkscape:cx="52.296452"
     inkscape:cy="41.418145"
     inkscape:window-width="1920"
     inkscape:window-height="1001"
     inkscape:window-x="-7"
     inkscape:window-y="-7"
     inkscape:window-maximized="1"
     inkscape:current-layer="svg16" />
  <desc
     id="desc2">Generated by the Chemistry Development Kit (http://github.com/cdk)</desc>
  <g
     stroke-linecap="round"
     stroke-linejoin="round"
     stroke="#000000"
     stroke-width="0.27"
     fill="#ff0d0d"
     id="g14"
     transform="matrix(2.139295,0,0,2.139295,0,0.84427748)">
    <rect
       x="0"
       y="0"
       width="16"
       height="6"
       fill="#ffffff"
       stroke="none"
       id="rect4" />
    <g
       id="mol1"
       class="mol">
      <line
         id="mol1bnd1"
         class="bond"
         x1="10.65"
         y1="3.1600001"
         x2="6.4699998"
         y2="0.75" />
      <line
         id="mol1bnd2"
         class="bond"
         x1="6.4699998"
         y1="0.75"
         x2="0.75"
         y2="4.0500002" />
      <g
         id="mol1atm1"
         class="atom">
        <path
           d="m 12.19,3.07 q -0.36,0 -0.57,0.26 -0.21,0.26 -0.21,0.72 0,0.45 0.21,0.72 0.21,0.26 0.57,0.26 0.35,0 0.56,-0.26 0.21,-0.26 0.21,-0.72 0,-0.45 -0.21,-0.72 -0.21,-0.26 -0.56,-0.26 z m 0,-0.27 q 0.5,0 0.8,0.34 0.3,0.34 0.3,0.91 0,0.57 -0.3,0.91 -0.3,0.34 -0.8,0.34 -0.51,0 -0.81,-0.34 -0.3,-0.34 -0.3,-0.91 0,-0.57 0.3,-0.91 0.3,-0.34 0.81,-0.34 z"
           stroke="none"
           id="path8" />
        <path
           d="m 13.57,2.85 h 0.32 v 0.98 h 1.18 V 2.85 h 0.32 v 2.4 H 15.07 V 4.11 h -1.18 v 1.14 h -0.32 z"
           stroke="none"
           id="path10" />
      </g>
    </g>
  </g>
</svg>
